<svg width="52" height="52" viewBox="0 0 52 52" fill="none" xmlns="http://www.w3.org/2000/svg">
<path d="M26.53 34.4201H20.21C17.05 34.4201 16 32.3201 16 30.2101V21.7901C16 18.6301 17.05 17.5801 20.21 17.5801H26.53C29.69 17.5801 30.74 18.6301 30.74 21.7901V30.2101C30.74 33.3701 29.68 34.4201 26.53 34.4201Z" stroke="#8E92BC" stroke-width="1.5" stroke-linecap="round" stroke-linejoin="round"/>
<path d="M33.52 31.1001L30.74 29.1501V22.8401L33.52 20.8901C34.88 19.9401 36 20.5201 36 22.1901V29.8101C36 31.4801 34.88 32.0601 33.52 31.1001Z" stroke="#8E92BC" stroke-width="1.5" stroke-linecap="round" stroke-linejoin="round"/>
<path d="M25.5 25C26.3284 25 27 24.3284 27 23.5C27 22.6716 26.3284 22 25.5 22C24.6716 22 24 22.6716 24 23.5C24 24.3284 24.6716 25 25.5 25Z" stroke="#8E92BC" stroke-width="1.5" stroke-linecap="round" stroke-linejoin="round"/>
<rect x="0.5" y="0.5" width="51" height="51" rx="25.5" stroke="#F5F5F7"/>
</svg>
